<svg width="26" height="26" viewBox="0 0 26 26" fill="none" xmlns="http://www.w3.org/2000/svg">
<path d="M3.68823 14.6823L3.68823 23.6853C3.68823 24.9636 4.72453 26 6.00286 26H15.0056C16.284 26 17.3203 24.9636 17.3203 23.6853V14.6823C17.3203 13.404 16.284 12.3676 15.0056 12.3676H6.00286C4.72453 12.3676 3.68823 13.404 3.68823 14.6823Z" fill="url(#paint0_linear_12_18845)"/>
<path d="M9.80415 20.1331L20.1354 9.80156C20.3848 9.55174 20.5676 9.24337 20.667 8.90466C20.7664 8.56596 20.7792 8.20773 20.7044 7.86276C20.6296 7.51778 20.4695 7.19708 20.2387 6.92999C20.0079 6.6629 19.7139 6.45794 19.3834 6.33389L2.85158 0.133258C2.4719 -0.00837359 2.05947 -0.0378408 1.66351 0.0483733C1.26755 0.134587 0.90473 0.332843 0.618297 0.619511C0.331863 0.906178 0.133914 1.26917 0.0480172 1.66521C-0.0378797 2.06125 -0.00809208 2.47363 0.13384 2.85321L6.3322 19.3853C6.4569 19.7159 6.66253 20.0099 6.93021 20.2405C7.19788 20.4711 7.51903 20.6309 7.86441 20.7053C8.20979 20.7797 8.56833 20.7663 8.90719 20.6663C9.24605 20.5663 9.55444 20.383 9.80415 20.1331Z" fill="url(#paint1_linear_12_18845)"/>
<path d="M17.32 21.0477C22.1137 21.0477 25.9998 17.1615 25.9998 12.3677C25.9998 7.57386 22.1137 3.68768 17.32 3.68768C12.5262 3.68768 8.64014 7.57386 8.64014 12.3677C8.64014 17.1615 12.5262 21.0477 17.32 21.0477Z" fill="url(#paint2_linear_12_18845)"/>
<path style="mix-blend-mode:multiply" d="M3.68799 14.6823L3.68799 23.6853C3.68799 24.9636 4.72429 26 6.00262 26H15.0054C16.2837 26 17.32 24.9636 17.32 23.6853V14.6823C17.32 13.404 16.2837 12.3676 15.0054 12.3676H6.00262C4.72429 12.3676 3.68799 13.404 3.68799 14.6823Z" fill="url(#paint3_linear_12_18845)"/>
<defs>
<linearGradient id="paint0_linear_12_18845" x1="9.33236" y1="28.118" x2="21.6581" y2="15.7926" gradientUnits="userSpaceOnUse">
<stop stop-color="#31FFFF"/>
<stop offset="1" stop-color="#2EB5FF"/>
</linearGradient>
<linearGradient id="paint1_linear_12_18845" x1="6.08397" y1="17.2033" x2="19.4606" y2="3.82699" gradientUnits="userSpaceOnUse">
<stop stop-color="#FCC649"/>
<stop offset="0.5" stop-color="#FDBF29"/>
<stop offset="1" stop-color="#FC9F12"/>
</linearGradient>
<linearGradient id="paint2_linear_12_18845" x1="16.1727" y1="21.275" x2="28.4999" y2="8.94808" gradientUnits="userSpaceOnUse">
<stop stop-color="#CD9DFF"/>
<stop offset="0.5" stop-color="#9A3CFF"/>
<stop offset="1" stop-color="#711DFF"/>
</linearGradient>
<linearGradient id="paint3_linear_12_18845" x1="9.33212" y1="28.118" x2="21.6578" y2="15.7926" gradientUnits="userSpaceOnUse">
<stop stop-color="#31FFFF"/>
<stop offset="1" stop-color="#2EB5FF"/>
</linearGradient>
</defs>
</svg>
