<svg width="24" height="25" viewBox="0 0 24 25" fill="none" xmlns="http://www.w3.org/2000/svg">
<path d="M22.1658 2.2068C22.5473 2.59523 22.8351 3.06511 23.0075 3.58086C23.1798 4.0966 23.2322 4.64468 23.1606 5.18359C23.089 5.7225 22.8954 6.23809 22.5943 6.69133C22.2932 7.14457 21.8926 7.52357 21.4228 7.79961C18.0364 9.7844 14.0847 10.5921 10.188 10.0958C6.39085 9.61229 3.02502 8.15315 0.277084 5.504C0.205081 5.43458 0.000249927 5.26933 0 5.09867C-0.000361062 4.85211 0.192 4.69333 0.192 4.69333L4.71437 0.0853333C4.71437 0.0853333 4.76701 1.56878e-09 4.90637 0C5.04573 -1.56878e-09 5.14104 0.0854617 5.1837 0.128C6.83156 1.73297 8.76714 2.67769 11.0537 2.97516C13.3808 3.2779 15.7431 2.80546 17.773 1.63133C18.464 1.22543 19.2711 1.06105 20.0665 1.16426C20.8618 1.26748 21.5998 1.63237 22.1636 2.2011L22.1658 2.2068Z" fill="#0A5FD9"/>
<path d="M22.1434 2.18806C21.4725 1.5175 20.5628 1.14081 19.6142 1.14081C18.6657 1.14081 17.7559 1.5175 17.085 2.18806L1.90174 17.3713C1.23118 18.0422 0.854492 18.952 0.854492 19.9005C0.854492 20.8491 1.23118 21.7588 1.90174 22.4298C2.23379 22.7621 2.62807 23.0257 3.06205 23.2055C3.49602 23.3854 3.96119 23.478 4.43096 23.478C4.90073 23.478 5.36589 23.3854 5.79987 23.2055C6.23384 23.0257 6.62812 22.7621 6.96017 22.4298L22.1434 7.24649C22.4757 6.91444 22.7394 6.52016 22.9192 6.08618C23.0991 5.65221 23.1916 5.18704 23.1916 4.71727C23.1916 4.2475 23.0991 3.78234 22.9192 3.34836C22.7394 2.91439 22.4757 2.52011 22.1434 2.18806Z" fill="url(#paint0_linear_12_18841)"/>
<path d="M1.87751 22.4107C1.4972 22.0224 1.21022 21.5527 1.03834 21.0371C0.866449 20.5215 0.814153 19.9735 0.88541 19.4346C0.956668 18.8958 1.14961 18.3803 1.44962 17.9271C1.74963 17.4739 2.14883 17.0949 2.61699 16.8189C5.99285 14.8344 9.93189 14.0268 13.8162 14.5228C17.6105 15.0073 21.1429 16.709 23.8855 19.3688C23.9786 19.456 23.9999 19.4773 23.9999 19.6053C23.9999 19.7333 23.8719 19.84 23.8719 19.84L19.8186 24.064C19.8186 24.064 19.4473 24.4907 19.1359 24.4907C18.8246 24.4907 18.5608 24.1933 18.3892 24.0427C16.8115 22.6571 15.0441 21.9165 12.9519 21.6435C10.6322 21.3407 8.27747 21.8132 6.25404 22.9873C5.56446 23.3922 4.75951 23.5553 3.96674 23.4509C3.17397 23.3464 2.43872 22.9804 1.87751 22.4107Z" fill="url(#paint1_linear_12_18841)"/>
<defs>
<linearGradient id="paint0_linear_12_18841" x1="22.9608" y1="3.31025" x2="7.46019" y2="16.0608" gradientUnits="userSpaceOnUse">
<stop stop-color="#2684FF"/>
<stop offset="0.15" stop-color="#2785FF"/>
<stop offset="0.57" stop-color="#2785FF" stop-opacity="0.79"/>
<stop offset="0.87" stop-color="#2785FF" stop-opacity="0.15"/>
<stop offset="1" stop-color="#22BFFF" stop-opacity="0"/>
</linearGradient>
<linearGradient id="paint1_linear_12_18841" x1="1.14144" y1="19.6245" x2="23.9311" y2="19.4581" gradientUnits="userSpaceOnUse">
<stop stop-color="#2785FF"/>
<stop offset="0.67" stop-color="#1C77F2"/>
<stop offset="1" stop-color="#0457D1"/>
</linearGradient>
</defs>
</svg>
